<svg xmlns="http://www.w3.org/2000/svg" width="102" height="20" fill="none"><path fill="#111" d="M1.79 17.5a7.25 7.25 0 0 1-1.2-4.52V6.47a7.37 7.37 0 0 1 1.18-4.55C2.57.88 3.94.36 5.87.37c1.92 0 3.23.46 3.91 1.36a5.88 5.88 0 0 1 1.15 3.9v1.53H7.36V5.5a8.76 8.76 0 0 0-.1-1.3 1.47 1.47 0 0 0-.41-.82 1.34 1.34 0 0 0-1-.33 1.25 1.25 0 0 0-1.29.66 4.79 4.79 0 0 0-.29 1.9v8.28c-.04.65.08 1.3.34 1.91a1.26 1.26 0 0 0 1.25.63 1.15 1.15 0 0 0 1.2-.64 5.12 5.12 0 0 0 .27-1.9v-1.74h3.56v1.5a6.34 6.34 0 0 1-1.06 4c-.75.96-2.06 1.43-3.92 1.43-1.86 0-3.32-.52-4.12-1.59zm14-16.88h4.08l3.45 18.25h-3.4l-.6-4.03h-2.87l-.69 4h-3.44L15.79.62zm3.14 11.92-1.08-7.33-1.08 7.33h2.16zm7.03-9.17h-2.79V.62h9.23v2.75h-2.75v15.47h-3.7l.01-15.47z"/><path fill="#444" d="M39.65.62h7v1.9h-4.48v6.02h3.64v1.8h-3.64v6.68h4.53v1.82h-7.05V.62zm9.08 0h1.72l5.17 12.1V.62h2.1v18.25h-1.6L50.93 6.42v12.42h-2.13L48.73.62zm11.78 0h6.99v1.9h-4.48v6.02h3.67v1.8h-3.63v6.68h4.5v1.82H60.5V.62zm9.07 0h3.63a6 6 0 0 1 4.02 1.14c.86.75 1.29 1.99 1.29 3.7 0 2.32-.75 3.73-2.23 4.25l2.58 9.13h-2.45l-2.36-8.55H72.1v8.55h-2.52V.62zm3.44 7.82c.83.08 1.66-.15 2.33-.66a3.11 3.11 0 0 0 .7-2.36 5.12 5.12 0 0 0-.25-1.73 1.65 1.65 0 0 0-.86-.94 4.07 4.07 0 0 0-1.76-.3h-1.11v6.02l.95-.03zm8.9 9.05a8.1 8.1 0 0 1-1.1-4.64V6.76a11.83 11.83 0 0 1 .43-3.47 3.9 3.9 0 0 1 1.5-2.1 5.06 5.06 0 0 1 2.9-.73 4.5 4.5 0 0 1 1.93.24 4.53 4.53 0 0 1 1.66 1.05 6.12 6.12 0 0 1 1.1 4.02v.68h-2.36V5.9a10.06 10.06 0 0 0-.16-2.02 1.74 1.74 0 0 0-.65-1.07 2.57 2.57 0 0 0-1.49-.36 2.16 2.16 0 0 0-1.56.5c-.35.33-.59.79-.66 1.28-.1.71-.16 1.44-.14 2.16v6.77a6.58 6.58 0 0 0 .5 3 2.44 2.44 0 0 0 1.95.92 2.42 2.42 0 0 0 1.9-1 7.1 7.1 0 0 0 .53-3.16v-1.29h-2.3v-1.8h4.57v9.02h-1.56l-.25-2.1a3.2 3.2 0 0 1-1.2 1.73 3.16 3.16 0 0 1-2 .6 3.98 3.98 0 0 1-1.98-.33 4.02 4.02 0 0 1-1.57-1.25zm13.8-5.08L91.8.62h2.34l2.77 8.8 2.72-8.8h2.37l-3.88 11.8v6.42h-2.41v-6.43z"/></svg>