<svg xmlns="http://www.w3.org/2000/svg" width="71" height="59" fill="none"><path fill="#FDC305" d="M59.88 23.8a25.43 25.43 0 00-8.05-10.37 25.73 25.73 0 00-12.2-5.02 25.8 25.8 0 00-13.09 1.67A25.59 25.59 0 0016.03 18a25.3 25.3 0 00-5.15 12.06 25.21 25.21 0 001.6 13 25.42 25.42 0 007.9 10.48 25.72 25.72 0 0012.13 5.18 113.04 113.04 0 01-1.69-6.8 32.41 32.41 0 004.76 2.54s.12 2.14.28 4.53c1.79.03 3.58-.13 5.33-.47a2.1 2.1 0 010-.75c.3-1.85 1.1-5.2 1.25-7.35a15.11 15.11 0 002.9-3.68l-.06.44c-.55 4.22-1.7 8.74-2.4 9.99a5.54 5.54 0 01-.83 1.14A25.73 25.73 0 0052 53.58a25.48 25.48 0 007.02-8.43 25.25 25.25 0 00.87-21.34zm-1.47 3.77c-.44.42-1.35.71-1.5-.58a34.09 34.09 0 01-.19-2.2s-1.93-3.4-2.65-3.43c-.72-.04-5.83 3.44-7.18 4.96-1.17 1.28-1.4 1.19-1.4 3.44 0 1.7.22 8.1.1 13l-8.15 2.16a64.52 64.52 0 01-7.8 1.7l-1-5.78h-.14l-2.57-13.07s-3.8-1.42-5.2-1.81a3.79 3.79 0 00-4 .62 5.03 5.03 0 00-1.3 1.73 5 5 0 00-.44 2.1c.21.45.37.94.48 1.43.05.48-1.2.43-2 .43s-.92-1.43-.29-3.1A22.5 22.5 0 0115 25.44a11.78 11.78 0 012.07-2.86s.14-.34 1.25-.24c1.11.1 7.28.43 7.28.43l.05-2.26a143.93 143.93 0 0120.24-1.33V21a22.67 22.67 0 018.14-1.98.92.92 0 01.77.38c.34.43 2.41 2.98 2.65 3.35a27.73 27.73 0 011.83 2.97 6.17 6.17 0 01-.87 1.83z"/><path fill="#F06351" d="M56.46 21.5l1 1.28a27.74 27.74 0 011.83 2.97 6.14 6.14 0 01-.86 1.77c-.44.42-1.35.71-1.5-.58-.15-1.29-.2-2.14-.2-2.14s-1.94-3.4-2.66-3.44c-.72-.04-5.83 3.44-7.18 4.96-1.17 1.28-1.4 1.19-1.4 3.44 0 1.49.17 6.6.13 11.14 1.81.2 4.47.7 5.27 1.86 0 0-.29-7.12 7.81-3.39 0 0 .28-9.71 11.46-7.22a43.67 43.67 0 00-13.7-10.65zm-10.53-2.3a89.02 89.02 0 00-1.4-16.4s-.15-1.3-.87-.24a14.06 14.06 0 00-1.2 3.97 71.46 71.46 0 00-12.82.33c-.82-2.72-2.22-3.96-2.89-3.64-.67.33-.75 3.26-.75 3.26l-.33 14.04a143.94 143.94 0 0120.26-1.33z"/><path fill="#E55645" d="M45.35 46.74c.13-1.06.2-2.47.24-4.03l-8.15 2.16a64.43 64.43 0 01-7.8 1.75l1.11 4.96c0 .1 0 .22.07.33a32.4 32.4 0 004.76 2.53 42.48 42.48 0 006.88-4.1v.06a15.12 15.12 0 002.9-3.66z"/><path fill="#000" d="M32 16.09c-.05-.1 1 .67 1.41.91.41.24.61.42.61.59 0 .17-.26.33-.62.33s-.92-.12-1-.25c-.08-.14.6 0 .94 0h.3A8.05 8.05 0 0132 16.09zm7.5.1s-1 1.28-1.09 1.34c-.09.06-.17.33.2.28a8.15 8.15 0 001.21-.27c.11-.06.07-.2-.12-.18-.19.02-.68.05-1 .1l.85-1.25s.03-.12-.05-.01zm-3.14 6.07a2.3 2.3 0 001.1-1c.27-.65 0-.9-.45-.99a2.46 2.46 0 00-1.75.34c-.39.37-.34.73 0 1a5.17 5.17 0 001.1.65z"/><path fill="#F06351" d="M36 23.5a2.04 2.04 0 01-.46.6c-.28.23-.63.36-1 .38a2.2 2.2 0 01-1.54-.44 2 2 0 01-.53-.44 1 1 0 00-.36-.25s.75 4.08 2.57 4.73c1.82.66 2.16-.75 2.21-1.13a5.55 5.55 0 00-.82-3.21c0-.3-.02-.1-.07-.23z"/><path fill="#000" d="M34.3 24.64a3.52 3.52 0 01-2.35-1.42.15.15 0 010-.2.14.14 0 01.16-.03.14.14 0 01.04.03 3.2 3.2 0 002.11 1.3 2.12 2.12 0 001.64-.99l.14-.19.1.22s.38.75 1 .8c.62.03 1.06-.42 1.63-1.29a.14.14 0 01.2-.04.14.14 0 01.04.2c-.66.98-1.3 1.44-1.89 1.4a1.56 1.56 0 01-1.12-.72 2.25 2.25 0 01-1.7.93z"/><path fill="#FDC305" d="M36.26 37.99c2.07 0 3.75-1.67 3.75-3.72s-1.68-3.72-3.75-3.72a3.73 3.73 0 00-3.75 3.72A3.73 3.73 0 0036.26 38z"/><path fill="#111" d="M41.23 31.25l-3.13 1.3 1.15-5.59-7.5 9.68 3.13-1.3-1.15 5.6 7.5-9.7zm-7.39 3.8L38 29.68l-.8 3.97 2-.82-4.2 5.38.81-3.97-1.97.8zm-1.4-1.46a1.11 1.11 0 100-2.22c-.62 0-1.12.5-1.12 1.1 0 .62.5 1.12 1.12 1.12zm6.52 4.02c.44 0 .8-.35.8-.78a.79.79 0 00-.8-.78.79.79 0 00-.79.78c0 .43.36.78.8.78zm.96-2.15a.35.35 0 00.35-.35.35.35 0 00-.35-.34.35.35 0 00-.35.34.35.35 0 00.35.35z"/><path fill="#F06351" d="M45.88 20.99a57.22 57.22 0 00-5.09 5.17 31.79 31.79 0 01-5.3 4.86c-.23-.53-1.64-1.51-1.64-1.51s-3.14-2.13-5.2-3.81a31.78 31.78 0 01-3.14-2.98l-2-.1a22.62 22.62 0 0012 8.76c.86-.14 3.28-1.85 5.1-3.25a57.44 57.44 0 006-5.86 6.31 6.31 0 001.13-1.99c-1.14.38-1.86.7-1.86.7z"/><path fill="#FDC305" d="M65.22 3.47l-8.46 9.37-1.22-1.98L63.7 0l1.53 3.47zm-2.57 13.65l5.54-4.08-.78-3.7-5.4 4.76.64 3.02zm-2.73 31.85l6.13 3.16 3.01-2.32-6.69-2.73-2.45 1.9zM1.95 5.92L5.02 2.6l9.29 8.93-1.22 2.26L1.95 5.92zm5.43 10.23l-4.7-3.1-2.4 3.83 5.15 2.38 1.95-3.11zm6.53 35.98l-4.55 3.32 2.8 3.55 4.02-3.99-2.27-2.88z"/><path fill="#F06351" d="M25.93 27.77s-3.8-1.42-5.2-1.81a3.79 3.79 0 00-4 .62 5.03 5.03 0 00-1.3 1.73 5 5 0 00-.44 2.1c.21.45.37.94.48 1.43.05.48-1.2.43-2 .43s-.92-1.43-.29-3.1c.5-1.3 1.1-2.54 1.82-3.72-5.45 2.82-15 9.33-15 9.33a46.2 46.2 0 018.19.23c5.25.53 5 4.64 5 4.64a38.92 38.92 0 015.63-1.1c2.12-.14 2.27 2.1 2.27 2.1l.53 3.83a18.25 18.25 0 012.65-2.34 6.1 6.1 0 014.38-1.3l-2.72-13.07z"/></svg>