<svg xmlns="http://www.w3.org/2000/svg" xmlns:xlink="http://www.w3.org/1999/xlink"><defs><clipPath id="a"><path fill="#fff" d="M0 0h16v16H0z"/></clipPath><clipPath id="a"><path fill="#fff" d="M0 0h30v32H0z"/></clipPath><clipPath id="a"><path fill="#fff" d="M.16.8h101v18H.16z"/></clipPath><clipPath id="a"><path fill="#fff" d="M0 .32h20v20.07H0z"/></clipPath></defs><symbol id="icon-alarm" viewBox="0 0 25 30">
  <g fill="#fff">
    <path d="M19.52 10.27a1.09 1.09 0 1 1-2.17 0 1.09 1.09 0 0 1 2.17 0ZM8.65 10.27a1.09 1.09 0 1 1-2.17 0 1.09 1.09 0 0 1 2.17 0ZM8.65 23.29a1.09 1.09 0 1 1-2.17 0 1.09 1.09 0 0 1 2.17 0ZM14.09 25.46a1.09 1.09 0 1 1-2.18 0 1.09 1.09 0 0 1 2.18 0ZM5.39 16.71a1.09 1.09 0 1 1-2.17 0 1.09 1.09 0 0 1 2.17 0ZM22.79 16.71a1.09 1.09 0 1 1-2.18 0 1.09 1.09 0 0 1 2.18 0ZM19.52 23.29a1.09 1.09 0 1 1-2.17 0 1.09 1.09 0 0 1 2.17 0Z"/>
    <path fill-rule="evenodd" clip-rule="evenodd" d="M18.15 28c.41-.2.9-.13 1.22.2l1.83 1.87c.26.27.7.27.97 0a.68.68 0 0 0 0-.95l-1.35-1.4c-.43-.44-.37-1.15.1-1.55a12.75 12.75 0 0 0 4.31-9.62c0-6.97-5.47-12.61-12.23-12.61C6.24 3.94.77 9.58.77 16.55c0 3.82 1.64 7.23 4.23 9.55.46.4.52 1.1.1 1.54l-1.44 1.48a.68.68 0 1 0 .98.95l1.88-1.93c.31-.33.81-.4 1.22-.2a11.88 11.88 0 0 0 10.41.06ZM13 27.76c6 0 10.87-5.02 10.87-11.2C23.87 10.35 19 5.33 13 5.33c-6 0-10.87 5.02-10.87 11.21 0 6.2 4.86 11.21 10.87 11.21Zm-.76-11.52V8.88a.78.78 0 0 1 1.56 0v8.18a.8.8 0 0 1-.8.8.76.76 0 0 1-.76-.76V16.24Z"/>
    <path fill-rule="evenodd" clip-rule="evenodd" d="M5.23 1.69c0-.42.34-.75.75-.75h14a.75.75 0 0 1 0 1.5h-6.25v1.52c6.42.39 11.5 5.88 11.5 12.6a12.79 12.79 0 0 1-4.32 9.61 1.12 1.12 0 0 0-.38.9 1 1 0 0 0 .29.65l1.35 1.4a.68.68 0 0 1-.97.95l-1.83-1.88a1.01 1.01 0 0 0-.54-.29 1.1 1.1 0 0 0-.68.1 11.92 11.92 0 0 1-10.4-.06 1.1 1.1 0 0 0-.77-.07 1 1 0 0 0-.46.27l-1.88 1.93a.68.68 0 1 1-.98-.95l1.43-1.48a1 1 0 0 0 .29-.61A1.1 1.1 0 0 0 5 26.1a12.79 12.79 0 0 1-4.24-9.55c0-6.7 5.07-12.18 11.47-12.59V2.44H5.98a.75.75 0 0 1-.75-.75Zm.7 23.38a11.36 11.36 0 0 1-3.8-8.51c0-4.8 2.92-8.9 7.03-10.5 1.2-.47 2.49-.72 3.84-.72h.02c1.37 0 2.68.26 3.88.74a11.21 11.21 0 0 1 6.97 10.47A11.36 11.36 0 0 1 20 25.13a10.84 10.84 0 0 1-3.47 2.03 10.56 10.56 0 0 1-10.6-2.1Zm7.1-16.97c.42 0 .77.35.77.78v8.18a.8.8 0 0 1-.8.8.76.76 0 0 1-.76-.76V8.88c0-.43.34-.77.76-.78h.02Z"/>
  </g>
</symbol><symbol id="icon-eat" viewBox="0 0 25 30"><path fill="#fff" fill-rule="evenodd" d="M18.62.08a1 1 0 0 1 1.09.21c.9.91 2.1 2.88 3.06 5.92A42.6 42.6 0 0 1 24.5 19a1 1 0 0 1-1 1H20v9a1 1 0 1 1-2 0V1a1 1 0 0 1 .62-.92ZM20 18h2.5a39.62 39.62 0 0 0-1.64-11.19 22.4 22.4 0 0 0-.86-2.3V18ZM6 0a1 1 0 0 1 1 1v28a1 1 0 1 1-2 0V1a1 1 0 0 1 1-1Z" clip-rule="evenodd"/><path fill="#fff" fill-rule="evenodd" d="M1.5 0a1 1 0 0 1 1 1v5.5c0 .56.2 1.32.7 1.92.48.56 1.31 1.08 2.8 1.08a1 1 0 1 1 0 2 5.41 5.41 0 0 1-4.33-1.8A5.07 5.07 0 0 1 .5 6.5V1a1 1 0 0 1 1-1Z" clip-rule="evenodd"/><path fill="#fff" fill-rule="evenodd" d="M10.5 0a1 1 0 0 0-1 1v5.5c0 .56-.2 1.32-.7 1.92C8.32 8.98 7.49 9.5 6 9.5a1 1 0 0 0 0 2c2.01 0 3.43-.73 4.33-1.8a5.07 5.07 0 0 0 1.17-3.2V1a1 1 0 0 0-1-1Z" clip-rule="evenodd"/></symbol><symbol id="icon-facebook" viewBox="0 0 22 22"><path stroke-linecap="round" stroke-linejoin="round" stroke-width="1.1" d="M16.5 1.83h-2.75c-1.22 0-2.38.48-3.24 1.32a4.45 4.45 0 0 0-1.34 3.18v2.7H6.42v3.59h2.75v7.19h3.66v-7.2h2.75l.92-3.59h-3.67v-2.7c0-.23.1-.46.27-.63.17-.17.4-.26.65-.26h2.75v-3.6Z"/></symbol><symbol id="icon-instagram" viewBox="0 0 16 16"><g clip-path="url(#a)"><path d="M7.98.06c1.34 0 2.43.02 3.27.05a6 6 0 0 1 1.92.37 3.99 3.99 0 0 1 2.31 2.32 6 6 0 0 1 .38 1.92 91.88 91.88 0 0 1 0 6.53 6 6 0 0 1-.38 1.92 3.99 3.99 0 0 1-2.3 2.31 6 6 0 0 1-1.93.38 91.88 91.88 0 0 1-6.53 0 6 6 0 0 1-1.92-.38 3.99 3.99 0 0 1-2.32-2.3 6 6 0 0 1-.37-1.93 91.73 91.73 0 0 1 0-6.53A6 6 0 0 1 .48 2.8 3.99 3.99 0 0 1 2.8.48 6 6 0 0 1 4.72.11C5.56.08 6.65.06 7.98.06Zm0 1.03c-1.38 0-2.51.02-3.39.05-.56.02-1.08.12-1.56.3-.75.31-1.28.84-1.6 1.6-.17.47-.27 1-.29 1.55a98.83 98.83 0 0 0 0 6.79c.02.56.12 1.08.3 1.56.31.75.84 1.28 1.6 1.6.47.17 1 .27 1.55.29a98.66 98.66 0 0 0 6.79 0 5.01 5.01 0 0 0 1.56-.3 2.85 2.85 0 0 0 1.6-1.6c.17-.47.27-1 .29-1.55a98.66 98.66 0 0 0 0-6.79 5.01 5.01 0 0 0-.3-1.56 2.85 2.85 0 0 0-1.6-1.6c-.47-.17-1-.27-1.55-.29-.88-.03-2.01-.05-3.4-.05Zm0 10.07c.88 0 1.63-.31 2.25-.93.62-.62.93-1.37.93-2.25 0-.87-.31-1.62-.93-2.24a3.06 3.06 0 0 0-2.25-.93c-.87 0-1.62.31-2.24.93a3.06 3.06 0 0 0-.93 2.24c0 .88.31 1.63.93 2.25.62.62 1.37.93 2.24.93Zm0-7.24c1.13 0 2.09.4 2.88 1.19.8.8 1.19 1.75 1.19 2.87 0 1.13-.4 2.09-1.2 2.88-.78.8-1.74 1.19-2.87 1.19-1.12 0-2.08-.4-2.87-1.2a3.92 3.92 0 0 1-1.19-2.87c0-1.12.4-2.08 1.19-2.87.8-.8 1.75-1.19 2.87-1.19Zm5.2-.15a.95.95 0 0 1-.97.94.9.9 0 0 1-.67-.28.9.9 0 0 1-.27-.66.95.95 0 0 1 .93-.97c.26 0 .49.1.68.29.2.19.3.42.3.68Z"/></g></symbol><symbol id="icon-leaf" viewBox="0 0 30 32"><g clip-path="url(#a)" fill="#fff"><path d="M27.84 2.77a.95.95 0 0 0-.9-.77h-.01c-4.94.03-16.95.92-21.8 8.38-2.51 3.88-2.73 8.91-.64 14.96l.07.13a25.93 25.93 0 0 0-1.04 3.32c-.11.54.21 1.07.72 1.19l.2.02c.43 0 .81-.32.9-.79.03-.1 2.42-10.37 10.86-16.38.43-.3.55-.93.26-1.38a.9.9 0 0 0-1.3-.28c-4.79 3.4-7.74 8-9.47 11.65-1.24-4.57-.92-8.37.99-11.3 3.74-5.76 12.62-7.15 17.98-7.45-1.16 1.8-2.41 5.1-2.41 10.93 0 3.12-.83 5.52-2.47 7.14-2.62 2.6-6.88 2.83-10 2.58-.51-.04-.96.38-1 .93-.04.55.35 1.03.86 1.07.63.05 1.3.08 1.98.08 3.18 0 6.87-.66 9.43-3.2 2.04-2 3.07-4.9 3.07-8.6 0-9.1 3.22-11.1 3.23-11.1.4-.21.6-.68.5-1.13Z"/></g></symbol><symbol id="icon-tub" viewBox="0 0 29 32">
<g fill="#fff">
      <path d="M20.78 18.47c-1.71 0-3.1 1.48-3.1 3.3 0 1.83 1.4 3.3 3.1 3.3 1.7 0 3.08-1.47 3.08-3.3 0-1.82-1.38-3.3-3.08-3.3Zm0 5.02c-.89 0-1.6-.77-1.6-1.71 0-.95.71-1.72 1.6-1.72.88 0 1.6.77 1.6 1.72 0 .94-.72 1.7-1.6 1.7ZM11.6-.01c-1.75 0-3.18 1.52-3.18 3.4 0 1.89 1.43 3.41 3.19 3.41s3.18-1.52 3.18-3.4c0-1.89-1.42-3.41-3.18-3.41Zm0 5.48c-1.06 0-1.93-.93-1.93-2.07 0-1.15.87-2.07 1.94-2.07 1.07 0 1.93.92 1.93 2.07 0 1.14-.86 2.07-1.93 2.07ZM8.23 17.61c-1.3 0-2.34 1.12-2.34 2.5 0 1.39 1.04 2.5 2.34 2.5 1.3 0 2.34-1.11 2.34-2.5 0-1.38-1.05-2.5-2.34-2.5ZM8 19.5c-.46 0 1.16 1.1 1.16.61 0-.49-1.62.39-1.16.39.46 0 1.06-.88 1.06-.39 0 .5-.6-.61-1.06-.61ZM18.5 9.76s3.04-.84 6.18 1.5c.9.76 1.76 1.33 1.15 2.12-.34.34-.64.66-1.72-.53a6.92 6.92 0 0 0-5.61-1.44c-1.13.24-1.96.55-3.56 2.15a8.27 8.27 0 0 1-6.5 2.5c-2.52-.24-3.84-1.27-5.24-2.55-.3-.42-.3-.87-.12-1.13.17-.26.83-.52 1.2-.13.37.4 2.1 1.97 3.82 2.07 1.72.1 3.44.21 5.74-1.96 2.3-2.18 3.46-2.34 4.66-2.6Z"/>
      <path d="M28.65 26.82V8.16c0-.58-.38-.65-.53-.66h-.5c-.5 0-.54.56-.54.74V26.84a2.68 2.68 0 0 1-.82 1.89c-.81.7-1.62.6-1.62.6s-20.18 0-20.66-.03a2.3 2.3 0 0 1-1.6-1c-.57-.8-.46-1.85-.46-1.85V8.3c0-.83-.67-.8-.67-.8h-.3c-.54 0-.6.58-.6.77v18.54c0 1.33.46 2.4 1.55 3.33 1.1.94 2.38.86 2.38.86h20.58c.86 0 1.98-.42 2.91-1.56.93-1.14.88-2.63.88-2.63Z"/>
      <path d="M26.26 28.73c-.56.47-1.11.58-1.4.6h-.22s-17.81 0-20.36-.02h-.3a2.33 2.33 0 0 1-1-.4 2.54 2.54 0 0 1-.96-1.42v-.02a3.22 3.22 0 0 1-.1-.65V8.3a1.44 1.44 0 0 0 0-.03c-.02-.8-.67-.78-.67-.78h-.3c-.54 0-.6.6-.6.78v18.54c0 .23.02.45.05.66a3.88 3.88 0 0 0 .66 1.75c.22.32.5.63.84.92A3.61 3.61 0 0 0 3.9 31c.24.03.39.02.39.02H24.86a3.68 3.68 0 0 0 2.51-1.12 4.08 4.08 0 0 0 1.27-2.99V8.16c0-.58-.37-.65-.52-.66h-.5c-.44 0-.52.43-.54.66v18.72a2.6 2.6 0 0 1-.55 1.55l-.27.3Zm1.86-1.9.53-.01c-.18 0-.36 0-.53.02Z"/>
    </g>
</symbol><symbol id="icon-vkontakte" viewBox="0 0 23 16"><path d="M.07 4c0-.63.42-.96 1.27-1.01L4.6 3c.22 0 .37.09.44.27.33.91.7 1.7 1.13 2.37.41.66.95 1.43 1.63 2.3a.3.3 0 0 0 .28.16c.1 0 .18-.04.24-.13l.07-.2.02-3.17c0-.21-.06-.36-.19-.43A1.9 1.9 0 0 0 7.53 4c-.26-.04-.4-.17-.4-.4 0-.05.02-.09.03-.11.3-.8 1.18-1.19 2.63-1.19L11 2.29c.56 0 1.02.12 1.38.35.37.23.55.6.55 1.1v4.15c.1.06.2.09.28.09.22 0 .41-.11.57-.33 1.6-1.88 2.48-3.13 2.6-3.77a1.29 1.29 0 0 1 .55-.57c.24-.13.44-.22.62-.27a.5.5 0 0 1 .2-.03h3.39l.21.01c.3 0 .52.12.68.35.06.07.1.15.12.24a1.57 1.57 0 0 1 .06.4v.13c-.1.5-.36 1.03-.78 1.6-.41.57-.94 1.18-1.59 1.84-.64.66-1.04 1.09-1.2 1.3-.13.14-.2.28-.2.4 0 .1.06.2.18.33l3.2 3.36c.17.2.26.41.26.64 0 .28-.13.52-.4.7-.26.18-.57.28-.94.3l-.37.03h-3.33a.8.8 0 0 0-.08 0 .8.8 0 0 1-.1.02c-.31 0-.61-.12-.89-.35a182 182 0 0 1-2.06-2.16 1.1 1.1 0 0 0-.3-.24 25.63 25.63 0 0 0-.44 1.63l-.07.31c-.14.43-.45.68-.92.77l-.3.02H9.74a5.92 5.92 0 0 1-3.62-1.4 14.5 14.5 0 0 1-3.25-3.59A32.9 32.9 0 0 1 .18 4.52C.11 4.36.07 4.2.07 4Zm13.15 4.73c-.3 0-.58-.07-.83-.21-.25-.14-.37-.33-.37-.58v-4.2c0-.25-.07-.42-.22-.52-.15-.1-.4-.16-.77-.16L9.8 3.1c-.63 0-1.1.09-1.43.27.65.26.97.67.97 1.24v3.22c-.03.3-.18.56-.44.76-.26.2-.55.3-.88.3-.43 0-.77-.17-1-.53a18.47 18.47 0 0 1-2.54-4.1l-.2-.47-2.9-.02c-.2 0-.3.01-.33.03-.02.02-.03.07-.03.16 0 .1.02.22.04.34l.46 1.03a23.46 23.46 0 0 0 4 6.25c1.44 1.53 2.85 2.29 4.23 2.29h2.2c.08 0 .15-.02.19-.07a.52.52 0 0 0 .1-.24l.05-.18.42-1.61c.11-.22.22-.37.3-.44.16-.14.35-.2.57-.2.35 0 .71.17 1.08.53l1.86 1.97c.11.16.24.24.37.24h3.6c.45 0 .67-.1.67-.28a.31.31 0 0 0-.07-.18l-3.17-3.3a1.17 1.17 0 0 1-.38-.83c0-.3.12-.57.35-.84.2-.25.56-.65 1.11-1.22a28.2 28.2 0 0 0 1.43-1.59c.41-.5.68-.94.81-1.34l.07-.24a.24.24 0 0 1-.02-.12l-.02-.14h-3.44c-.22.07-.4.18-.53.33l-.13.35c-.36.84-1.32 2.14-2.86 3.9-.31.24-.67.36-1.08.36Z"/></symbol><symbol id="logo-html-academy" viewBox="0 0 27 34"><path d="M13.64.02 13.5 0 0 1.4v24.61L13.5 34 27 26.01V1.41L13.64 0Zm11.6 25L13.5 31.96 1.77 25.02v-10.1l11.68 6.93.02 1.25-8.02-4.75v1.23l8.04 4.8.02 1.3-8.05-4.76v1.22l8.04 4.81 8.12-4.83V16.9l3.62-2.15v10.26Zm0-11.57L22 15.33l-1.48.88-7.06-4.19-.01 1.23 6.04 3.57-.06.03-.13.07-.86.5-4.98-2.95-.01 1.22 3.93 2.33-.93.61-.02.01-2.97-1.74-.01 1.23 1.94 1.13-1.98 1.19L1.8 13.58l11.63-6.96 11.8 6.83Zm0-1.22L13.43 5.3 1.77 12.22V2.99L13.5 1.76 25.23 3v9.24Z"/></symbol><symbol id="logo-text-mobile" viewBox="0 0 102 19"><g fill="#111" clip-path="url(#a)"><path d="M1.43 17.34a6.86 6.86 0 0 1-1.27-4.3V6.65c-.1-1.55.3-3.09 1.19-4.38.87-1 2.2-1.47 4.18-1.47 1.98 0 3.25.47 4.04 1.31a5.42 5.42 0 0 1 1.18 3.77v1.54H6.88V5.65a3.7 3.7 0 0 0-.24-1.54 1.16 1.16 0 0 0-1.1-.62c-.56 0-.95.16-1.11.55a4.85 4.85 0 0 0-.24 1.69v8.23c-.04.55.07 1.11.32 1.61.16.39.55.54 1.1.54.56 0 .87-.15 1.03-.54.18-.52.26-1.06.24-1.61V12.1h3.87v1.54a5.78 5.78 0 0 1-1.18 3.85c-.8.92-2.14 1.38-4.04 1.38-1.9-.07-3.31-.54-4.1-1.54ZM15.41 1.04h4.5l3.33 17.53H19.6l-.63-3.69h-2.6l-.64 3.7h-3.71l3.4-17.54Zm3.24 11.53-.94-6.84-.95 6.84h1.9ZM26 3.96h-2.68V1.04h9.4v2.84h-2.69v14.7H26V3.95ZM39.91 1.04h6.96v1.84h-4.5v5.77H46v1.77h-3.64v6.46h4.5v1.77h-7.03V1.04h.08ZM48.92 1.04h1.74l5.14 11.61V1.04h2.05v17.53h-1.58l-5.21-12v12h-2.14V1.04ZM60.22 1.04h6.96v1.84h-4.5v5.77h3.63v1.77h-3.64v6.46h4.5v1.77h-6.95V1.04ZM69.23 1.04h3.64c1.43-.1 2.85.28 4.03 1.07.87.7 1.26 1.93 1.26 3.54 0 2.23-.7 3.62-2.21 4.08l2.53 8.77h-2.45l-2.37-8.23h-1.98v8.23h-2.53V1.04h.08Zm3.48 7.53c.81.07 1.63-.15 2.3-.61.47-.39.7-1.16.7-2.3a4.85 4.85 0 0 0-.23-1.7c-.18-.4-.49-.72-.87-.92a3.69 3.69 0 0 0-1.74-.31h-1.1V8.5h.94v.07ZM81.32 17.27a7.61 7.61 0 0 1-1.1-4.46V6.96c-.02-1.12.11-2.23.4-3.3.26-.82.78-1.52 1.5-2 .88-.52 1.9-.76 2.92-.7 1.66 0 2.84.38 3.55 1.23a5.77 5.77 0 0 1 1.11 3.85v.61h-2.37v-.54c0-.64-.05-1.28-.16-1.92-.06-.4-.3-.76-.63-1a2.5 2.5 0 0 0-1.5-.39 2.42 2.42 0 0 0-1.58.47 1.75 1.75 0 0 0-.63 1.23c-.1.68-.16 1.38-.16 2.07v6.54c-.06 1 .1 2 .47 2.93.32.61.95.84 1.9.84a1.96 1.96 0 0 0 1.9-.92c.41-.97.6-2.03.55-3.08v-1.23h-2.3V9.88h4.6v8.7h-1.59l-.24-2c-.2.66-.64 1.25-1.22 1.65-.59.4-1.3.6-2.02.57a4.05 4.05 0 0 1-3.4-1.53ZM94.84 12.42l-3.87-11.3h2.37l2.76 8.45 2.69-8.46h2.37L97.3 12.42v6.15h-2.37v-6.15h-.08Z"/></g></symbol><symbol id="mail-icon" viewBox="0 0 19 14"><path stroke-width="1.3" d="M.65 5.85v8M17.65 5.85v8M0 13.2h18M0 1.2h18M17.35 3.03 9 9.53.65 3.02V1.5h16.7v1.53Z"/></symbol><symbol id="phone-icon" viewBox="0 0 20 21"><g clip-path="url(#a)"><path d="M17.9 9.75H9.4v1.2h8.5l-2.1 2.11.9.9 3.1-3.1a.75.75 0 0 0 0-.9l-3.1-3.12-.9.9 2.1 2.01ZM8.1 19.79v-6.22a.65.65 0 0 0-.6-.6H3.1a1.23 1.23 0 0 0 1.2 1.2h2.5v5.02H3.1a1.78 1.78 0 0 1-1.9-1.71V3.43a1.78 1.78 0 0 1 1.7-1.8h3.9v5.01H4.4a1.22 1.22 0 0 0-1.2 1.2h4.4a.65.65 0 0 0 .6-.6V.92a.86.86 0 0 0-.7-.6H3.1A3 3 0 0 0 0 3.23v13.95a2.9 2.9 0 0 0 2.9 3.1h4.6a.5.5 0 0 0 .6-.5Z"/></g></symbol></svg>