<svg xmlns="http://www.w3.org/2000/svg" width="80" height="83" fill="none" viewBox="0 0 80 83"><path fill="#fff" d="M65.657 35.8289H14.3907c-1.7993 0-3.2631-1.4632-3.2631-3.2619v-9.7725c0-1.7988 1.4638-3.2625 3.2631-3.2625h51.2657c1.7987 0 3.2618 1.4637 3.2618 3.2625v9.7731c.0007 1.7981-1.4625 3.2613-3.2612 3.2613ZM14.3907 22.032c-.4137 0-.7631.3494-.7631.7625v9.7731c0 .42.3425.7619.7631.7619h51.2657c.42 0 .7618-.3419.7618-.7619v-9.7731c0-.4138-.3493-.7625-.7618-.7625H14.3907Z"/><path fill="#fff" d="M58.5074 69.3076h-36.97c-3.4637 0-6.2818-2.8175-6.2818-6.2819V34.5789c0-.69.56-1.25 1.25-1.25s1.25.56 1.25 1.25v28.4468c0 2.0857 1.6968 3.7819 3.7818 3.7819h36.97c2.0844 0 3.7807-1.6962 3.7807-3.7819V34.5789c0-.69.56-1.25 1.25-1.25s1.25.56 1.25 1.25v28.4468c0 3.4644-2.8175 6.2819-6.2807 6.2819Z"/><path fill="#fff" d="M40.0231 69.3076c-.69 0-1.25-.5594-1.25-1.25V34.5789c0-.69.56-1.25 1.25-1.25s1.25.56 1.25 1.25V68.057c0 .6912-.5593 1.2506-1.25 1.2506ZM24.4218 22.0276c-3.9125-2.12-5.3725-7.0275-3.2544-10.9407 2.1169-3.9112 7.0238-5.3719 10.9382-3.2556 5.9631 3.23 9.1831 12.2413 9.3168 12.6231l-2.3581.8294c-.03-.085-3.0381-8.4856-8.1481-11.2537-2.7031-1.4613-6.0894-.4525-7.55 2.2468-1.4619 2.7019-.4544 6.0894 2.2475 7.5525l-1.1919 2.1982Z"/><path fill="#fff" d="m55.6218 22.0275-1.19-2.1988c1.3094-.7093 2.2638-1.885 2.6888-3.3106.4244-1.4262.2675-2.9325-.4419-4.2406-.7075-1.3094-1.8825-2.2631-3.3081-2.6875-1.4263-.4244-2.9313-.2681-4.24.44-5.11 2.7675-8.1181 11.1681-8.1481 11.2531l-2.3582-.8294c.1338-.3818 3.3532-9.3931 9.3163-12.6225 1.895-1.0262 4.0781-1.2525 6.1431-.6375 2.0669.6144 3.7688 1.9975 4.7944 3.8932 1.0269 1.895 1.2537 4.0768.6387 6.1437-.6156 2.0663-1.9987 3.7694-3.895 4.7969ZM63.5381 52.5686H16.5056c-.69 0-1.25-.56-1.25-1.25s.56-1.25 1.25-1.25h47.0325c.69 0 1.25.56 1.25 1.25s-.5594 1.25-1.25 1.25Z"/></svg>