<svg width="25" height="30" fill="none" xmlns="http://www.w3.org/2000/svg"><g fill="#fff"><path d="M19.52 10.27a1.09 1.09 0 11-2.17 0 1.09 1.09 0 012.17 0zm-10.87 0a1.09 1.09 0 11-2.17 0 1.09 1.09 0 012.17 0zm0 13.02a1.09 1.09 0 11-2.17 0 1.09 1.09 0 012.17 0zm5.44 2.17a1.09 1.09 0 11-2.18 0 1.09 1.09 0 012.18 0zm-8.7-8.75a1.09 1.09 0 11-2.17 0 1.09 1.09 0 012.17 0zm17.4 0a1.09 1.09 0 11-2.18 0 1.09 1.09 0 012.18 0zm-3.27 6.58a1.09 1.09 0 11-2.17 0 1.09 1.09 0 012.17 0z"/><path fill-rule="evenodd" clip-rule="evenodd" d="M18.15 28c.41-.2.9-.13 1.22.2l1.83 1.87c.26.27.7.27.97 0a.68.68 0 000-.95l-1.35-1.4c-.43-.44-.37-1.15.1-1.55a12.75 12.75 0 004.31-9.62c0-6.97-5.47-12.61-12.23-12.61C6.24 3.94.77 9.58.77 16.55c0 3.82 1.64 7.23 4.23 9.55.46.4.52 1.1.1 1.54l-1.44 1.48a.68.68 0 10.98.95l1.88-1.93c.31-.33.81-.4 1.22-.2a11.88 11.88 0 0010.41.06zM13 27.76c6 0 10.87-5.02 10.87-11.2C23.87 10.35 19 5.33 13 5.33c-6 0-10.87 5.02-10.87 11.21 0 6.2 4.86 11.21 10.87 11.21zm-.76-11.52V8.88a.78.78 0 011.56 0v8.18a.8.8 0 01-.8.8.76.76 0 01-.76-.76v-.86z"/><path fill-rule="evenodd" clip-rule="evenodd" d="M5.23 1.69c0-.42.34-.75.75-.75h14a.75.75 0 010 1.5h-6.25v1.52c6.42.39 11.5 5.88 11.5 12.6a12.79 12.79 0 01-4.32 9.61 1.12 1.12 0 00-.38.9 1 1 0 00.29.65l1.35 1.4a.68.68 0 01-.97.95l-1.83-1.88a1.01 1.01 0 00-.54-.29 1.1 1.1 0 00-.68.1 11.92 11.92 0 01-10.4-.06 1.1 1.1 0 00-.77-.07 1 1 0 00-.46.27l-1.88 1.93a.68.68 0 11-.98-.95l1.43-1.48a1 1 0 00.29-.61A1.1 1.1 0 005 26.1a12.79 12.79 0 01-4.24-9.55c0-6.7 5.07-12.18 11.47-12.59V2.44H5.98a.75.75 0 01-.75-.75zm.7 23.38a11.36 11.36 0 01-3.8-8.51c0-4.8 2.92-8.9 7.03-10.5 1.2-.47 2.49-.72 3.84-.72h.02c1.37 0 2.68.26 3.88.74a11.21 11.21 0 016.97 10.47A11.36 11.36 0 0120 25.13a10.84 10.84 0 01-3.47 2.03 10.56 10.56 0 01-10.6-2.1zm7.1-16.97c.42 0 .77.35.77.78v8.18a.8.8 0 01-.8.8.76.76 0 01-.76-.76V8.88c0-.43.34-.77.76-.78h.02z"/></g></svg>